<svg width="20" height="21" viewBox="0 0 20 21" fill="none" xmlns="http://www.w3.org/2000/svg">
<path d="M10.9138 3.24503C11.0573 3.10155 11.2481 3.01535 11.4506 3.00262C11.653 2.98989 11.8531 3.05149 12.0134 3.17586L12.0917 3.24503L18.756 9.9117C18.8994 10.0552 18.9855 10.2461 18.9983 10.4486C19.011 10.6512 18.9494 10.8514 18.8251 11.0117L18.756 11.09L12.0917 17.7567C11.9418 17.9062 11.7407 17.9929 11.5291 17.9994C11.3176 18.0058 11.1115 17.9315 10.9527 17.7915C10.794 17.6515 10.6945 17.4562 10.6744 17.2455C10.6543 17.0347 10.7152 16.8242 10.8447 16.6567L10.9138 16.5784L16.9891 10.5009L10.9138 4.42336C10.7577 4.26709 10.6699 4.05516 10.6699 3.83419C10.6699 3.61322 10.7577 3.4013 10.9138 3.24503Z" fill="#FF2E00"/>
<path d="M17.6699 10.501L1.66992 10.501" stroke="#FF2E00" stroke-width="1.65" stroke-linecap="round"/>
</svg>
