<svg width="20" height="20" viewBox="0 0 20 20" fill="none" xmlns="http://www.w3.org/2000/svg">
<path d="M6.24399 3.24405C6.38748 3.10057 6.5784 3.01438 6.78092 3.00164C6.98344 2.98891 7.18365 3.05051 7.34399 3.17488L7.42232 3.24405L14.089 9.91072C14.2325 10.0542 14.3187 10.2451 14.3314 10.4477C14.3441 10.6502 14.2825 10.8504 14.1582 11.0107L14.089 11.0891L7.42232 17.7557C7.27236 17.9052 7.07113 17.9919 6.8595 17.9984C6.64788 18.0049 6.44173 17.9305 6.28292 17.7905C6.12412 17.6505 6.02457 17.4553 6.00449 17.2445C5.98441 17.0337 6.04531 16.8232 6.17482 16.6557L6.24399 16.5774L12.3215 10.4999L6.24399 4.42238C6.08776 4.26611 6 4.05419 6 3.83322C6 3.61225 6.08776 3.40032 6.24399 3.24405Z" fill="#FF5733"/>
</svg>
