<svg width="20" height="21" viewBox="0 0 20 21" fill="none" xmlns="http://www.w3.org/2000/svg">
<path d="M17.7549 6.74399C17.8983 6.88748 17.9845 7.0784 17.9973 7.28092C18.01 7.48344 17.9484 7.68365 17.824 7.84399L17.7549 7.92232L11.0882 14.589C10.9447 14.7325 10.7538 14.8187 10.5513 14.8314C10.3487 14.8441 10.1485 14.7825 9.98818 14.6582L9.90985 14.589L3.24318 7.92232C3.09373 7.77236 3.00696 7.57113 3.00049 7.3595C2.99403 7.14788 3.06836 6.94173 3.20839 6.78292C3.34842 6.62412 3.54364 6.52457 3.75441 6.50449C3.96518 6.48441 4.17569 6.54531 4.34318 6.67482L4.42152 6.74399L10.499 12.8215L16.5765 6.74399C16.7328 6.58776 16.9447 6.5 17.1657 6.5C17.3867 6.5 17.5986 6.58776 17.7549 6.74399Z" fill="#182339"/>
</svg>
