<svg width="14" height="12" viewBox="0 0 14 12" fill="none" xmlns="http://www.w3.org/2000/svg">
<path d="M12.1694 0.774917C12.2547 0.687875 12.3565 0.618727 12.4688 0.571521C12.5812 0.524315 12.7019 0.5 12.8237 0.5C12.9456 0.5 13.0663 0.524315 13.1786 0.571521C13.291 0.618727 13.3928 0.687875 13.4781 0.774917C13.8356 1.13617 13.8406 1.71992 13.4906 2.08742L6.09936 10.8249C6.01545 10.9171 5.91361 10.9911 5.80009 11.0426C5.68656 11.094 5.56374 11.1218 5.43912 11.1241C5.31451 11.1264 5.19073 11.1033 5.07535 11.0562C4.95998 11.009 4.85543 10.9389 4.76811 10.8499L0.270615 6.29242C0.0971613 6.11552 0 5.87766 0 5.62992C0 5.38217 0.0971613 5.14431 0.270615 4.96742C0.355922 4.88037 0.457738 4.81123 0.5701 4.76402C0.682463 4.71681 0.803114 4.6925 0.92499 4.6925C1.04687 4.6925 1.16752 4.71681 1.27988 4.76402C1.39224 4.81123 1.49406 4.88037 1.57936 4.96742L5.39436 8.83367L12.1444 0.802418C12.1521 0.792757 12.1605 0.783574 12.1694 0.774917Z" fill="#04C600"/>
</svg>
