<svg width="11" height="9" viewBox="0 0 11 9" fill="none" xmlns="http://www.w3.org/2000/svg">
<path d="M9.37702 0.456188C9.441 0.390906 9.51737 0.339045 9.60164 0.303641C9.68591 0.268236 9.7764 0.25 9.8678 0.25C9.95921 0.25 10.0497 0.268236 10.134 0.303641C10.2182 0.339045 10.2946 0.390906 10.3586 0.456188C10.6267 0.727126 10.6305 1.16494 10.368 1.44056L4.82452 7.99369C4.76159 8.0628 4.68521 8.11835 4.60007 8.15693C4.51492 8.19551 4.4228 8.21631 4.32934 8.21807C4.23588 8.21982 4.14305 8.20249 4.05651 8.16714C3.96998 8.13178 3.89157 8.07914 3.82609 8.01244L0.452961 4.59431C0.322871 4.46164 0.25 4.28325 0.25 4.09744C0.25 3.91163 0.322871 3.73323 0.452961 3.60056C0.516942 3.53528 0.593304 3.48342 0.677575 3.44802C0.761847 3.41261 0.852335 3.39437 0.943742 3.39437C1.03515 3.39437 1.12564 3.41261 1.20991 3.44802C1.29418 3.48342 1.37054 3.53528 1.43452 3.60056L4.29577 6.50025L9.35827 0.476813C9.3641 0.469568 9.37036 0.46268 9.37702 0.456188Z" fill="#FEFEFE"/>
</svg>
