<svg width="20" height="20" viewBox="0 0 20 20" fill="none" xmlns="http://www.w3.org/2000/svg">
<path d="M12.9167 5.16667V14.75C12.9167 16.5917 11.425 18.0833 9.58333 18.0833C7.74167 18.0833 6.25 16.5917 6.25 14.75V4.33333C6.25 3.7808 6.46949 3.25089 6.86019 2.86019C7.2509 2.46949 7.7808 2.25 8.33333 2.25C8.88587 2.25 9.41577 2.46949 9.80647 2.86019C10.1972 3.25089 10.4167 3.7808 10.4167 4.33333V13.0833C10.4167 13.5417 10.0417 13.9167 9.58333 13.9167C9.125 13.9167 8.75 13.5417 8.75 13.0833V5.16667H7.5V13.0833C7.5 13.6359 7.71949 14.1658 8.11019 14.5565C8.5009 14.9472 9.0308 15.1667 9.58333 15.1667C10.1359 15.1667 10.6658 14.9472 11.0565 14.5565C11.4472 14.1658 11.6667 13.6359 11.6667 13.0833V4.33333C11.6667 2.49167 10.175 1 8.33333 1C6.49167 1 5 2.49167 5 4.33333V14.75C5 17.2833 7.05 19.3333 9.58333 19.3333C12.1167 19.3333 14.1667 17.2833 14.1667 14.75V5.16667H12.9167Z" fill="#858383"/>
</svg>
