<svg width="13" height="12" viewBox="0 0 13 12" fill="none" xmlns="http://www.w3.org/2000/svg">
<path d="M2.7749 9.43506C2.8042 9.43506 2.8335 9.43213 2.86279 9.42773L5.32666 8.99561C5.35596 8.98975 5.38379 8.97656 5.4043 8.95459L11.6138 2.74512C11.6273 2.73157 11.6381 2.71547 11.6455 2.69775C11.6528 2.68003 11.6566 2.66103 11.6566 2.64185C11.6566 2.62266 11.6528 2.60366 11.6455 2.58594C11.6381 2.56822 11.6273 2.55213 11.6138 2.53857L9.1792 0.102539C9.15137 0.0747071 9.11475 0.0600586 9.0752 0.0600586C9.03564 0.0600586 8.99902 0.0747071 8.97119 0.102539L2.76172 6.31201C2.73975 6.33398 2.72656 6.36035 2.7207 6.38965L2.28857 8.85352C2.27432 8.93199 2.27942 9.01275 2.30341 9.08881C2.3274 9.16488 2.36957 9.23394 2.42627 9.29004C2.52295 9.38379 2.64453 9.43506 2.7749 9.43506ZM3.76221 6.88037L9.0752 1.56885L10.1489 2.64258L4.83594 7.9541L3.53369 8.18408L3.76221 6.88037ZM11.8906 10.6655H1.10938C0.850098 10.6655 0.640625 10.875 0.640625 11.1343V11.6616C0.640625 11.7261 0.693359 11.7788 0.757812 11.7788H12.2422C12.3066 11.7788 12.3594 11.7261 12.3594 11.6616V11.1343C12.3594 10.875 12.1499 10.6655 11.8906 10.6655Z" fill="black"/>
</svg>
