<svg width="12" height="16" viewBox="0 0 12 16" fill="none" xmlns="http://www.w3.org/2000/svg">
<path d="M5.99935 16C4.9468 15.1022 3.97118 14.1179 3.08268 13.0575C1.74935 11.465 0.166016 9.09333 0.166016 6.83333C0.165438 5.67913 0.507273 4.5507 1.14826 3.59085C1.78925 2.631 2.70058 1.88288 3.76691 1.44116C4.83324 0.999443 6.00664 0.883987 7.13861 1.10941C8.27059 1.33482 9.31025 1.89098 10.126 2.7075C10.6691 3.24821 11.0996 3.89128 11.3926 4.59947C11.6855 5.30767 11.8351 6.06694 11.8327 6.83333C11.8327 9.09333 10.2493 11.465 8.91602 13.0575C8.02752 14.1179 7.0519 15.1022 5.99935 16ZM5.99935 4.33333C5.33631 4.33333 4.70042 4.59672 4.23158 5.06556C3.76274 5.5344 3.49935 6.17029 3.49935 6.83333C3.49935 7.49637 3.76274 8.13226 4.23158 8.6011C4.70042 9.06994 5.33631 9.33333 5.99935 9.33333C6.66239 9.33333 7.29828 9.06994 7.76712 8.6011C8.23596 8.13226 8.49935 7.49637 8.49935 6.83333C8.49935 6.17029 8.23596 5.5344 7.76712 5.06556C7.29828 4.59672 6.66239 4.33333 5.99935 4.33333Z" fill="#2B2B2B"/>
</svg>
