<svg width="8" height="5" viewBox="0 0 8 5" fill="none" xmlns="http://www.w3.org/2000/svg">
<path d="M7.877 0.121994C7.94874 0.193741 7.99183 0.2892 7.9982 0.39046C8.00457 0.491721 7.97377 0.591826 7.91158 0.671994L7.877 0.711161L4.54366 4.04449C4.47192 4.11623 4.37646 4.15933 4.2752 4.1657C4.17394 4.17206 4.07383 4.14127 3.99366 4.07908L3.9545 4.04449L0.621164 0.711161C0.546435 0.636178 0.50305 0.535563 0.499819 0.429751C0.496588 0.323938 0.533754 0.220863 0.603768 0.141461C0.673782 0.0620589 0.771394 0.0122834 0.876779 0.0022444C0.982163 -0.0077946 1.08742 0.0226558 1.17116 0.0874107L1.21033 0.121994L4.24908 3.16074L7.28783 0.121994C7.36597 0.0438814 7.47193 -2.304e-08 7.58241 -1.82106e-08C7.6929 -1.33811e-08 7.79886 0.0438815 7.877 0.121994Z" fill="#858383"/>
</svg>
