<svg width="100" height="100" viewBox="0 0 100 100" fill="none" xmlns="http://www.w3.org/2000/svg">
<path d="M100 100L0 0H50L100 50V100Z" fill="#FFC800"/>
<path d="M59.3534 28.5516L60.0401 29.2383L53.6037 35.6748L53.0067 35.0778L54.25 25.9348L49.0568 31.128L48.3656 30.4367L54.8021 24.0003L55.3991 24.5972L54.1557 33.7492L59.3534 28.5516ZM56.8713 37.6587L60.6865 41.4739L60.0446 42.1157L55.5382 37.6093L61.9747 31.1728L66.3868 35.585L65.7405 36.2314L62.0195 32.5104L59.9055 34.6245L62.8903 37.6093L62.2485 38.2512L59.2636 35.2663L56.8713 37.6587ZM66.9344 49.0055L70.6105 41.9272L63.5322 45.6033L62.8409 44.9121L67.1633 36.3615L67.8994 37.0976L64.2234 44.1759L71.3466 40.5448L71.9929 41.1911L68.3618 48.3143L75.4401 44.6383L76.1717 45.3699L67.6212 49.6923L66.9344 49.0055Z" fill="#182339"/>
</svg>
