<svg width="13" height="13" viewBox="0 0 13 13" fill="none" xmlns="http://www.w3.org/2000/svg">
<path d="M7.94 8.7805C7.11547 9.3819 6.12679 9.71687 5.1065 9.7405H5.1L5.024 9.741C3.832 9.74106 2.68815 9.27068 1.84103 8.43208C0.99391 7.59348 0.511988 6.45444 0.5 5.2625L0.5 5.14C0.5 3.9094 0.988856 2.72919 1.85902 1.85902C2.72919 0.988856 3.9094 0.5 5.14 0.5C6.3706 0.5 7.55081 0.988856 8.42098 1.85902C9.29114 2.72919 9.78 3.9094 9.78 5.14C9.76267 6.16906 9.42365 7.16688 8.8105 7.9935L8.82 7.98L12.54 11.7L11.66 12.5L7.94 8.7805ZM1.82 5.1405C1.83764 6.02697 2.20286 6.87102 2.83693 7.49077C3.47101 8.11051 4.32319 8.45633 5.20983 8.45371C6.09647 8.45109 6.94659 8.10023 7.57699 7.47674C8.20739 6.85326 8.5676 6.00706 8.58 5.1205V5.093C8.5806 4.65394 8.49242 4.21929 8.32074 3.81519C8.14906 3.41108 7.89744 3.04587 7.581 2.7415L7.58 2.7405C7.11085 2.26583 6.51118 1.94134 5.85719 1.80826C5.2032 1.67518 4.5244 1.73952 3.90706 1.9931C3.28972 2.24668 2.76169 2.67806 2.39008 3.23242C2.01846 3.78678 1.82003 4.43911 1.82 5.1065V5.1425V5.1405Z" fill="#858383"/>
</svg>
