<svg width="21" height="20" viewBox="0 0 21 20" fill="none" xmlns="http://www.w3.org/2000/svg">
<path fill-rule="evenodd" clip-rule="evenodd" d="M13 4.5C13 4.51831 13.0007 4.51523 13.0056 4.49199C13.0159 4.44366 13.0448 4.3082 13.125 4.09672C13.2305 3.81844 13.3977 3.48334 13.638 3.16495C14.1047 2.54663 14.8311 2 16 2C17.1689 2 17.8953 2.54663 18.362 3.16495C18.6023 3.48334 18.7695 3.81844 18.875 4.09672C18.9552 4.3082 18.9841 4.44366 18.9944 4.49199C18.9993 4.51523 19 4.51831 19 4.5V8H21V4.5C21 4.19361 20.893 3.77759 20.7451 3.38765C20.584 2.96281 20.3313 2.45416 19.9583 1.96005C19.1985 0.953375 17.9248 0 16 0C14.0752 0 12.8015 0.953375 12.0417 1.96005C11.6687 2.45416 11.416 2.96281 11.2549 3.38765C11.107 3.77759 11 4.19361 11 4.5V8H2C0.89543 8 0 8.89543 0 10V18C0 19.1046 0.895431 20 2 20H14C15.1046 20 16 19.1046 16 18V10C16 8.89543 15.1046 8 14 8H13V4.5ZM2 10H14V18H2V10Z" fill="#858383"/>
</svg>
