<svg width="20" height="20" viewBox="0 0 20 20" fill="none" xmlns="http://www.w3.org/2000/svg">
<rect width="20" height="20" rx="4" fill="#182339"/>
<path d="M15.1694 5.27492C15.2547 5.18788 15.3565 5.11873 15.4688 5.07152C15.5812 5.02431 15.7019 5 15.8237 5C15.9456 5 16.0663 5.02431 16.1786 5.07152C16.291 5.11873 16.3928 5.18788 16.4781 5.27492C16.8356 5.63617 16.8406 6.21992 16.4906 6.58742L9.09936 15.3249C9.01545 15.4171 8.91361 15.4911 8.80009 15.5426C8.68656 15.594 8.56374 15.6218 8.43912 15.6241C8.31451 15.6264 8.19073 15.6033 8.07535 15.5562C7.95998 15.509 7.85543 15.4389 7.76811 15.3499L3.27061 10.7924C3.09716 10.6155 3 10.3777 3 10.1299C3 9.88217 3.09716 9.64431 3.27061 9.46742C3.35592 9.38037 3.45774 9.31123 3.5701 9.26402C3.68246 9.21681 3.80311 9.1925 3.92499 9.1925C4.04687 9.1925 4.16752 9.21681 4.27988 9.26402C4.39224 9.31123 4.49406 9.38037 4.57936 9.46742L8.39436 13.3337L15.1444 5.30242C15.1521 5.29276 15.1605 5.28357 15.1694 5.27492Z" fill="#F5F5F5"/>
</svg>
