<svg width="44" height="44" viewBox="0 0 44 44" fill="none" xmlns="http://www.w3.org/2000/svg">
<rect width="44" height="44" rx="4.07407" fill="#0EA70B"/>
<path d="M16 19.7998H11.6245V12.7578H12.3808V19.0976H16V19.7998ZM20.3018 18.7096C20.6488 18.3495 20.8223 17.9092 20.8223 17.3886C20.8223 16.8648 20.6488 16.4245 20.3018 16.0677C19.958 15.7075 19.5439 15.5275 19.0594 15.5275C18.5781 15.5275 18.164 15.7075 17.8169 16.0677C17.4732 16.4245 17.3013 16.8632 17.3013 17.3837C17.3013 17.901 17.4732 18.3413 17.8169 18.7047C18.164 19.0648 18.5781 19.2449 19.0594 19.2449C19.5439 19.2449 19.958 19.0665 20.3018 18.7096ZM17.3161 19.1712C16.8381 18.6867 16.5991 18.0925 16.5991 17.3886C16.5991 16.6815 16.8381 16.0857 17.3161 15.6011C17.7973 15.1133 18.38 14.8694 19.0643 14.8694C19.7485 14.8694 20.3296 15.1133 20.8076 15.6011C21.2855 16.0857 21.5245 16.6815 21.5245 17.3886C21.5245 18.0925 21.2855 18.6867 20.8076 19.1712C20.3296 19.6558 19.7485 19.898 19.0643 19.898C18.38 19.898 17.7973 19.6558 17.3161 19.1712ZM26.3027 19.5003V18.8962C26.2896 18.9159 26.2699 18.9437 26.2437 18.9797C26.2175 19.0157 26.1553 19.0812 26.0571 19.1761C25.9622 19.2711 25.8574 19.3546 25.7428 19.4266C25.6283 19.4953 25.476 19.5592 25.2861 19.6181C25.0995 19.6738 24.9031 19.7016 24.6969 19.7016C24.0879 19.7016 23.5576 19.4675 23.1058 18.9994C22.6573 18.5279 22.433 17.9567 22.433 17.2855C22.433 16.6144 22.6573 16.0447 23.1058 15.5766C23.5543 15.1052 24.0847 14.8694 24.6969 14.8694C24.9031 14.8694 25.0979 14.8973 25.2812 14.9529C25.4678 15.0053 25.6217 15.0724 25.7428 15.1543C25.864 15.2328 25.9671 15.313 26.0522 15.3949C26.1406 15.4767 26.2044 15.5439 26.2437 15.5962L26.3027 15.6748V14.9726H27.0098V19.5003C27.0098 20.1779 26.779 20.7492 26.3174 21.2141C25.8591 21.679 25.3009 21.9114 24.6428 21.9114C24.3875 21.9114 24.1436 21.8754 23.9111 21.8034C23.682 21.7346 23.4937 21.6511 23.3464 21.5529C23.1991 21.458 23.0681 21.3614 22.9536 21.2632C22.8422 21.165 22.762 21.0799 22.7129 21.0078L22.6344 20.9047L23.0861 20.4529C23.0992 20.4726 23.1205 20.5004 23.15 20.5364C23.1827 20.5757 23.2482 20.6412 23.3464 20.7328C23.4479 20.8278 23.5543 20.9096 23.6656 20.9784C23.7769 21.0504 23.921 21.1142 24.0977 21.1699C24.2745 21.2288 24.4562 21.2583 24.6428 21.2583C25.0979 21.2583 25.4875 21.0897 25.8116 20.7525C26.139 20.4153 26.3027 19.9979 26.3027 19.5003ZM23.6067 16.0382C23.2924 16.3787 23.1352 16.7944 23.1352 17.2855C23.1352 17.7766 23.2924 18.1924 23.6067 18.5328C23.9242 18.8733 24.2876 19.0436 24.6969 19.0436C25.1323 19.0436 25.5088 18.875 25.8263 18.5378C26.1439 18.2005 26.3027 17.7831 26.3027 17.2855C26.3027 16.7879 26.1439 16.3705 25.8263 16.0333C25.5088 15.6961 25.1323 15.5275 24.6969 15.5275C24.2876 15.5275 23.9242 15.6977 23.6067 16.0382ZM31.9696 18.7096C32.3166 18.3495 32.4902 17.9092 32.4902 17.3886C32.4902 16.8648 32.3166 16.4245 31.9696 16.0677C31.6259 15.7075 31.2117 15.5275 30.7272 15.5275C30.246 15.5275 29.8318 15.7075 29.4848 16.0677C29.141 16.4245 28.9692 16.8632 28.9692 17.3837C28.9692 17.901 29.141 18.3413 29.4848 18.7047C29.8318 19.0648 30.246 19.2449 30.7272 19.2449C31.2117 19.2449 31.6259 19.0665 31.9696 18.7096ZM28.9839 19.1712C28.5059 18.6867 28.2669 18.0925 28.2669 17.3886C28.2669 16.6815 28.5059 16.0857 28.9839 15.6011C29.4652 15.1133 30.0479 14.8694 30.7321 14.8694C31.4163 14.8694 31.9974 15.1133 32.4754 15.6011C32.9534 16.0857 33.1924 16.6815 33.1924 17.3886C33.1924 18.0925 32.9534 18.6867 32.4754 19.1712C31.9974 19.6558 31.4163 19.898 30.7321 19.898C30.0479 19.898 29.4652 19.6558 28.9839 19.1712ZM11.929 28.0873C11.5787 28.4572 11.4036 28.891 11.4036 29.3886C11.4036 29.883 11.5787 30.3168 11.929 30.69C12.2826 31.0599 12.6771 31.2449 13.1125 31.2449C13.5283 31.2449 13.8998 31.0648 14.2272 30.7047C14.5579 30.3413 14.7232 29.9026 14.7232 29.3886C14.7232 28.8714 14.5579 28.4327 14.2272 28.0726C13.8998 27.7092 13.5283 27.5275 13.1125 27.5275C12.6771 27.5275 12.2826 27.7141 11.929 28.0873ZM11.4036 31.0436V33.9114H10.7013V26.9726H11.4036V27.7288C11.4166 27.7092 11.4396 27.6797 11.4723 27.6404C11.5083 27.5979 11.5787 27.5275 11.6835 27.4293C11.7915 27.3311 11.9077 27.2443 12.0321 27.169C12.1565 27.0904 12.3153 27.0217 12.5085 26.9628C12.7049 26.9005 12.9062 26.8694 13.1125 26.8694C13.728 26.8694 14.2665 27.1166 14.7281 27.611C15.193 28.1053 15.4254 28.6979 15.4254 29.3886C15.4254 30.0761 15.1946 30.6671 14.733 31.1614C14.2714 31.6525 13.7312 31.898 13.1125 31.898C12.9062 31.898 12.7065 31.8686 12.5134 31.8096C12.3235 31.7507 12.1631 31.6803 12.0321 31.5985C11.9012 31.5166 11.7866 31.4348 11.6884 31.3529C11.5934 31.2678 11.5214 31.1958 11.4723 31.1369L11.4036 31.0436ZM17.4339 24.7578V31.7998H16.7317V24.7578H17.4339ZM20.1544 29.0351L22.0156 28.7306C22.0156 28.3738 21.9027 28.084 21.6768 27.8614C21.4509 27.6388 21.1611 27.5275 20.8076 27.5275C20.5522 27.5275 20.3116 27.5864 20.0857 27.7043C19.8631 27.8189 19.701 27.9367 19.5995 28.0578L19.4473 28.2297L18.9955 27.7779C19.0152 27.7517 19.0413 27.719 19.0741 27.6797C19.1101 27.6372 19.1854 27.5651 19.3 27.4636C19.4178 27.3589 19.5406 27.2656 19.6683 27.1837C19.796 27.1019 19.9629 27.0299 20.1692 26.9677C20.3787 26.9022 20.5915 26.8694 20.8076 26.8694C21.3576 26.8694 21.8126 27.0479 22.1727 27.4047C22.5361 27.7616 22.7178 28.2035 22.7178 28.7306V31.7998H22.0156V31.1467C22.0025 31.1663 21.9812 31.1941 21.9518 31.2302C21.9256 31.2629 21.8634 31.3235 21.7652 31.4119C21.6702 31.497 21.5671 31.5739 21.4558 31.6427C21.3445 31.7081 21.1972 31.7671 21.0138 31.8194C20.8338 31.8718 20.6472 31.898 20.454 31.898C19.9727 31.898 19.5668 31.7556 19.2361 31.4708C18.9088 31.186 18.7451 30.8602 18.7451 30.4936C18.7451 30.0909 18.8662 29.7668 19.1085 29.5212C19.3507 29.2724 19.6994 29.1104 20.1544 29.0351ZM20.454 31.2449C20.9091 31.2449 21.2823 31.0959 21.5736 30.798C21.8683 30.5001 22.0156 30.1138 22.0156 29.6391V29.3346L20.3558 29.6391C19.7534 29.7537 19.4506 30.0385 19.4473 30.4936C19.4473 30.7096 19.5357 30.8897 19.7125 31.0337C19.8925 31.1745 20.1397 31.2449 20.454 31.2449ZM24.6821 31.1663C24.2074 30.6753 23.9701 30.0811 23.9701 29.3837C23.9701 28.6864 24.2074 28.0939 24.6821 27.6061C25.1601 27.115 25.7265 26.8694 26.3812 26.8694C26.7577 26.8694 27.108 26.9513 27.4321 27.115C27.7595 27.2754 27.9936 27.4358 28.1344 27.5962L28.3455 27.827L27.8397 28.3279C27.8266 28.3083 27.807 28.2805 27.7808 28.2444C27.7546 28.2084 27.6957 28.143 27.604 28.048C27.5156 27.9531 27.419 27.8712 27.3143 27.8025C27.2095 27.7305 27.0736 27.6666 26.9067 27.611C26.7397 27.5553 26.5646 27.5275 26.3812 27.5275C25.9196 27.5275 25.5186 27.7075 25.1781 28.0677C24.8409 28.4245 24.6723 28.8648 24.6723 29.3886C24.6723 29.9092 24.8409 30.3495 25.1781 30.7096C25.5186 31.0665 25.9196 31.2449 26.3812 31.2449C26.6628 31.2449 26.9296 31.1778 27.1817 31.0436C27.4338 30.9093 27.6171 30.7751 27.7317 30.6409L27.8937 30.4444L28.3946 30.8962C28.375 30.9224 28.3439 30.9601 28.3013 31.0092C28.262 31.055 28.1769 31.1352 28.046 31.2498C27.915 31.3611 27.7775 31.461 27.6335 31.5494C27.4894 31.6345 27.3028 31.7147 27.0736 31.79C26.8477 31.862 26.6169 31.898 26.3812 31.898C25.7232 31.898 25.1568 31.6541 24.6821 31.1663ZM33.7719 29.6489L29.8482 29.6391C29.8744 30.0745 30.0528 30.451 30.3835 30.7686C30.7174 31.0861 31.1086 31.2449 31.5571 31.2449C31.8583 31.2449 32.1382 31.1778 32.3969 31.0436C32.6555 30.9093 32.8388 30.7751 32.9469 30.6409L33.1187 30.4444L33.5705 30.8962C33.5509 30.9224 33.5214 30.9601 33.4821 31.0092C33.4461 31.055 33.3643 31.1352 33.2366 31.2498C33.1122 31.3611 32.9763 31.461 32.829 31.5494C32.6849 31.6345 32.4967 31.7147 32.2643 31.79C32.0351 31.862 31.7994 31.898 31.5571 31.898C30.8991 31.898 30.3327 31.6541 29.858 31.1663C29.3833 30.6753 29.146 30.0811 29.146 29.3837C29.146 28.6864 29.38 28.0939 29.8482 27.6061C30.3196 27.115 30.8729 26.8694 31.508 26.8694C32.166 26.8694 32.716 27.0986 33.158 27.5569C33.6 28.012 33.821 28.5882 33.821 29.2855L33.7719 29.6489ZM32.5884 27.9547C32.2905 27.6699 31.9303 27.5275 31.508 27.5275C31.0857 27.5275 30.7174 27.6764 30.4031 27.9744C30.0888 28.2723 29.9038 28.6258 29.8482 29.0351H33.1187C33.0663 28.5997 32.8896 28.2395 32.5884 27.9547Z" fill="#FEFEFE"/>
</svg>
