<svg width="35" height="24" viewBox="0 0 35 24" fill="none" xmlns="http://www.w3.org/2000/svg">
<path d="M34.2708 3.98945C34.0726 3.28249 33.6865 2.64245 33.1537 2.13736C32.6058 1.61674 31.9342 1.24433 31.2024 1.05528C28.4637 0.333403 17.4912 0.333404 17.4912 0.333404C12.9169 0.28136 8.34367 0.510262 3.79742 1.01882C3.06562 1.22184 2.39533 1.60257 1.84617 2.12715C1.30659 2.64632 0.915757 3.28653 0.71159 3.98799C0.221142 6.63011 -0.0171506 9.31286 -7.65038e-05 12.0001C-0.0175765 14.6849 0.220132 17.3667 0.71159 20.0122C0.911382 20.7107 1.30076 21.348 1.8418 21.8628C2.38284 22.3776 3.05659 22.7494 3.79742 22.9463C6.57263 23.6667 17.4912 23.6667 17.4912 23.6667C22.0713 23.7189 26.6503 23.49 31.2024 22.9813C31.9342 22.7923 32.6058 22.4199 33.1537 21.8992C33.6863 21.3943 34.0719 20.7541 34.2693 20.0472C34.7725 17.406 35.0172 14.7222 34.9999 12.0336C35.0378 9.33366 34.7934 6.63714 34.2708 3.98799V3.98945ZM14.0028 16.9934V7.0082L23.132 12.0015L14.0028 16.9934Z" fill="#464F61"/>
</svg>
