<svg width="18" height="16" viewBox="0 0 18 16" fill="none" xmlns="http://www.w3.org/2000/svg">
<path d="M15.6417 15.8206L12.8451 13.024C11.6384 13.574 10.3259 13.8498 9.00008 13.8348C7.63342 13.8515 6.28092 13.5565 5.04508 12.9723C4.0873 12.505 3.22726 11.8596 2.51091 11.0706C1.75047 10.2555 1.15281 9.3026 0.750081 8.26313L0.666748 8.00147L0.754248 7.73813C1.35659 6.20171 2.37029 4.86077 3.68425 3.8623L1.50008 1.67813L2.67758 0.501465L16.8184 14.6423C16.589 14.8724 16.4603 15.0014 16.2309 15.2315L15.6434 15.8206H15.6417ZM4.86341 5.0423C3.79835 5.78889 2.95729 6.81206 2.43091 8.00147C2.98251 9.27411 3.90366 10.3517 5.07496 11.0947C6.24627 11.8376 7.61372 12.2116 9.00008 12.1681C9.87494 12.1753 10.7447 12.0344 11.5726 11.7515L10.0726 10.2515C9.73925 10.4148 9.37258 10.5006 9.00008 10.5015C8.33832 10.4973 7.70485 10.2326 7.2369 9.76465C6.76896 9.2967 6.50423 8.66323 6.50008 8.00147C6.50008 7.62897 6.58592 7.26147 6.75008 6.92647L4.86341 5.0423ZM15.5434 11.0098L14.3834 9.85063C14.8714 9.29889 15.2714 8.67517 15.5692 8.00147C15.0184 6.72827 14.0974 5.65013 12.9259 4.90709C11.7545 4.16405 10.3866 3.79044 9.00008 3.8348C8.79425 3.8348 8.58758 3.8423 8.38758 3.85647L6.91675 2.38397C7.60175 2.2373 8.30008 2.1648 9.00008 2.16813C10.3667 2.15146 11.7192 2.44647 12.9551 3.03063C13.9134 3.4973 14.7726 4.14313 15.4892 4.9323C16.2493 5.74643 16.847 6.69819 17.2501 7.73647L17.3334 8.00147L17.2459 8.2648C16.8558 9.27987 16.2786 10.2127 15.5442 11.0148L15.5434 11.0098Z" fill="black"/>
</svg>
