<svg width="20" height="20" viewBox="0 0 20 20" fill="none" xmlns="http://www.w3.org/2000/svg">
<path d="M10 7.5C9.33831 7.50437 8.70496 7.76916 8.23706 8.23706C7.76916 8.70496 7.50437 9.33831 7.5 10C7.5 11.3683 8.63167 12.5 10 12.5C11.3675 12.5 12.5 11.3683 12.5 10C12.5 8.6325 11.3675 7.5 10 7.5Z" fill="black"/>
<path d="M9.99992 4.1665C3.63908 4.1665 1.72742 9.68067 1.70992 9.7365L1.62158 9.99984L1.70908 10.2632C1.72742 10.319 3.63908 15.8332 9.99992 15.8332C16.3607 15.8332 18.2724 10.319 18.2899 10.2632L18.3783 9.99984L18.2907 9.7365C18.2724 9.68067 16.3607 4.1665 9.99992 4.1665ZM9.99992 14.1665C5.54075 14.1665 3.81325 10.9615 3.39492 9.99984C3.81492 9.03484 5.54325 5.83317 9.99992 5.83317C14.4591 5.83317 16.1866 9.03817 16.6049 9.99984C16.1849 10.9648 14.4566 14.1665 9.99992 14.1665Z" fill="black"/>
</svg>
