<svg width="51" height="51" viewBox="0 0 51 51" fill="none" xmlns="http://www.w3.org/2000/svg">
<path d="M43.1187 7.95604V2.99254H50.0191V1.09473H43.0342C42.5525 1.09577 42.0904 1.28449 41.7475 1.62027C41.5785 1.78765 41.445 1.98688 41.3547 2.20625C41.2644 2.42561 41.2192 2.66069 41.2218 2.89765V8.05458C41.2209 8.29624 41.2684 8.53567 41.3615 8.75896C41.5424 9.19168 41.8888 9.53554 42.3247 9.71516C42.5496 9.80758 42.7907 9.85472 43.0342 9.85385H50.0191V7.95604H43.1187ZM42.31 12.2006H41.0122V14.1093H42.3393V13.9195H41.2365V13.2115H42.0967V13.0217H41.2181V12.4086H42.321V12.2152L42.31 12.2006ZM39.1888 13.7188C39.0446 13.566 38.9643 13.3644 38.9643 13.155C38.9643 12.9455 39.0446 12.7439 39.1888 12.5911C39.2593 12.5177 39.3444 12.4596 39.4387 12.4207C39.533 12.3817 39.6344 12.3627 39.7366 12.3648C39.8153 12.3641 39.8935 12.3765 39.9682 12.4013C40.0321 12.4185 40.0929 12.4456 40.1483 12.4816C40.1939 12.5092 40.2359 12.5423 40.2733 12.5801L40.3468 12.6568C40.3468 12.6568 40.3468 12.686 40.3726 12.6896L40.5049 12.5692L40.4755 12.529C40.448 12.4912 40.4159 12.4569 40.3799 12.4268C40.3331 12.3848 40.2827 12.3469 40.2292 12.3137C40.1623 12.2702 40.0891 12.237 40.0123 12.2152C39.9228 12.1888 39.8299 12.1753 39.7366 12.175C39.6078 12.1726 39.48 12.1966 39.361 12.2456C39.2421 12.2946 39.1346 12.3675 39.0454 12.4597C38.8637 12.6462 38.7621 12.8955 38.7621 13.155C38.7621 13.4144 38.8637 13.6637 39.0454 13.8502C39.1346 13.9424 39.2421 14.0153 39.361 14.0643C39.48 14.1133 39.6078 14.1373 39.7366 14.1349C39.8312 14.1362 39.9255 14.1226 40.016 14.0947C40.0915 14.0709 40.1642 14.0391 40.2328 13.9998C40.2895 13.9637 40.3425 13.9222 40.3909 13.8757C40.4266 13.8481 40.4587 13.8162 40.4865 13.7809C40.5007 13.7704 40.5121 13.7566 40.5196 13.7407L40.3836 13.6166L40.3579 13.6531C40.3364 13.6836 40.3104 13.7107 40.2806 13.7334C40.2399 13.7689 40.1969 13.8018 40.152 13.832C40.0937 13.8649 40.0321 13.8918 39.9682 13.9122C39.8929 13.9341 39.8149 13.9452 39.7366 13.9451C39.6344 13.9472 39.533 13.9282 39.4387 13.8892C39.3444 13.8503 39.2593 13.7922 39.1888 13.7188ZM36.847 2.99254H40.3027V1.09473H31.4796V2.99254H34.9353V9.85385H36.847V2.99254ZM28.6122 9.85385H30.5128V1.09473H28.6122V4.52538H23.4029V1.09473H21.5096V9.85385H23.4065V6.4232H28.6158V9.85385H28.6122ZM21.7486 12.175C21.5877 12.1677 21.4301 12.2211 21.3074 12.3246C21.2534 12.3691 21.2099 12.4249 21.18 12.488C21.1501 12.5511 21.1346 12.6199 21.1346 12.6896C21.133 12.7736 21.1533 12.8565 21.1934 12.9305C21.2275 12.9939 21.2783 13.047 21.3405 13.0838C21.4043 13.1214 21.4721 13.152 21.5427 13.175L21.7596 13.248C21.8283 13.2672 21.8958 13.2904 21.9618 13.3174C22.0189 13.3399 22.0695 13.3763 22.1088 13.4232C22.1472 13.4708 22.168 13.5301 22.1676 13.5911C22.1687 13.6394 22.1591 13.6873 22.1394 13.7314C22.1197 13.7756 22.0904 13.8149 22.0537 13.8466C21.9615 13.9175 21.8465 13.9525 21.7302 13.9451C21.6679 13.9458 21.606 13.9372 21.5463 13.9195C21.4945 13.9078 21.4449 13.8881 21.3993 13.8612C21.3632 13.8427 21.3297 13.8194 21.3 13.7918C21.2768 13.7764 21.2568 13.7565 21.2412 13.7334C21.2394 13.7262 21.2394 13.7187 21.2412 13.7115L21.1162 13.8502L21.1383 13.8794C21.1603 13.9073 21.1863 13.9319 21.2155 13.9524L21.3405 14.0363C21.3973 14.0669 21.4579 14.0902 21.5206 14.1057C21.595 14.125 21.6716 14.1348 21.7486 14.1349C21.9186 14.1439 22.086 14.0907 22.2191 13.9852C22.2737 13.9353 22.3167 13.8742 22.3453 13.8061C22.3739 13.7381 22.3872 13.6647 22.3845 13.5911C22.3899 13.5134 22.3739 13.4357 22.3383 13.3663C22.3027 13.2968 22.2488 13.2383 22.1824 13.1969C22.1183 13.1621 22.052 13.1317 21.9838 13.1057L21.7633 13.0363C21.6952 13.0188 21.6288 12.9956 21.5647 12.967C21.5058 12.944 21.4539 12.9063 21.414 12.8575C21.3758 12.81 21.3562 12.7503 21.3589 12.6896C21.3591 12.6456 21.3691 12.6022 21.3881 12.5624C21.4072 12.5227 21.4349 12.4876 21.4692 12.4597C21.5525 12.3914 21.6591 12.3575 21.7669 12.3648C21.8181 12.3634 21.8691 12.3708 21.9176 12.3867C21.9575 12.3959 21.9959 12.4106 22.0316 12.4305C22.0627 12.4487 22.0922 12.4695 22.1198 12.4925C22.1419 12.5144 22.1603 12.5254 22.164 12.5363C22.1722 12.5427 22.1796 12.55 22.186 12.5582L22.3184 12.4195L22.2963 12.394C22.2764 12.3699 22.2528 12.3489 22.2265 12.332L22.1162 12.2626C22.0678 12.235 22.0158 12.2141 21.9618 12.2006C21.8984 12.1829 21.8328 12.1743 21.7669 12.175H21.7486ZM20.1163 13.4414L20.8184 12.2006H20.5868L20.0207 13.2225L19.4509 12.2006H19.2193L19.9214 13.4414V14.1093H20.1273V13.4414H20.1163ZM18.109 9.85385H20.0391V1.09473H18.0686L15.0908 4.63488L12.0983 1.09473H10.1131V9.85385H12.0138V3.98888L15.0651 7.58012L16.5797 5.78451C17.0944 5.16407 17.6054 4.56188 18.1017 3.95969V9.85385H18.109ZM10.955 13.2115H10.047V13.3867H10.955V13.2115ZM9.53964 14.1093H9.74551L8.96246 12.2006H8.77497L7.98824 14.1093H8.20515L8.42206 13.5801H9.31539L9.5286 14.1093H9.53964ZM9.24554 13.3794H8.51029L8.87791 12.4816L9.24554 13.3794ZM6.8633 9.85385H8.82276V9.20787C8.51028 8.84291 8.19413 8.47794 7.86694 8.09108L6.91109 6.97064H6.99566C7.23958 6.97281 7.48125 6.92432 7.70518 6.8283C7.92258 6.74059 8.11916 6.60883 8.28236 6.44144C8.44786 6.27469 8.58119 6.07926 8.67572 5.8648C8.77388 5.64668 8.824 5.41027 8.82276 5.17137V2.91954C8.82446 2.6806 8.77432 2.4441 8.67572 2.22612C8.58119 2.01166 8.44786 1.81621 8.28236 1.64947C8.11937 1.48092 7.9228 1.34794 7.70518 1.25896C7.48125 1.16295 7.23958 1.11446 6.99566 1.11662H0.0107422V9.87575H1.90769V7.06552C1.90769 7.06552 1.90769 7.06552 1.93343 7.06552C1.93343 7.01808 1.93344 6.99619 1.89667 6.99619H4.42227L6.8633 9.8794V9.85385ZM6.90008 5.07283H1.89667V2.99254H6.90008V5.07283ZM0.753334 12.2006H0.0180795V14.1093H0.187196V13.3466H0.727598L1.1467 14.1093H1.37463L0.933491 13.321H0.973924C1.00712 13.3052 1.03908 13.2869 1.06951 13.2663C1.11176 13.2386 1.15009 13.2055 1.18347 13.1677C1.22641 13.1222 1.26009 13.0689 1.28272 13.0108C1.31016 12.9398 1.32389 12.8642 1.32317 12.7882C1.32471 12.7119 1.31059 12.6361 1.28166 12.5654C1.25274 12.4947 1.2096 12.4306 1.15491 12.377C1.10022 12.3234 1.0351 12.2814 0.963535 12.2536C0.891968 12.2257 0.815454 12.2127 0.738637 12.2152L0.753334 12.2006ZM0.187196 12.4086H0.738637C0.840038 12.4086 0.937294 12.4486 1.009 12.5198C1.0807 12.5909 1.12096 12.6875 1.12096 12.7882C1.12096 12.8888 1.0807 12.9854 1.009 13.0565C0.937294 13.1277 0.840038 13.1677 0.738637 13.1677H0.187196V12.4086ZM2.08782 12.2152H1.88563V13.3757C1.88501 13.4769 1.90486 13.5772 1.94402 13.6706C1.98317 13.764 2.04082 13.8487 2.11356 13.9195C2.22192 14.025 2.35918 14.0964 2.50818 14.1248C2.65718 14.1533 2.81131 14.1375 2.95134 14.0795C3.09136 14.0215 3.21107 13.9238 3.29549 13.7986C3.37991 13.6735 3.42529 13.5264 3.42599 13.3757V12.2152H3.22012V13.3757C3.22377 13.5302 3.16561 13.6798 3.05837 13.7918C3.00571 13.8452 2.94278 13.8876 2.87332 13.9165C2.80385 13.9453 2.72928 13.96 2.65398 13.9597C2.57967 13.9607 2.50594 13.9463 2.43757 13.9174C2.36919 13.8885 2.30768 13.8457 2.25694 13.7918C2.20218 13.7372 2.15901 13.6722 2.12996 13.6008C2.10092 13.5293 2.08658 13.4528 2.08782 13.3757V12.2152ZM4.03259 13.7261L3.90758 13.8648L3.92964 13.894C3.95272 13.921 3.97861 13.9454 4.00685 13.967L4.13183 14.0509C4.1887 14.0815 4.24922 14.1048 4.31197 14.1203C4.38642 14.1394 4.46301 14.1492 4.53992 14.1495C4.70994 14.1585 4.87738 14.1053 5.01047 13.9998C5.06505 13.9499 5.1081 13.8888 5.13666 13.8207C5.16521 13.7527 5.1786 13.6793 5.1759 13.6057C5.18126 13.528 5.16529 13.4503 5.12968 13.3809C5.09407 13.3114 5.04017 13.2529 4.97371 13.2115C4.90966 13.1767 4.84333 13.1463 4.77518 13.1203L4.55461 13.0509C4.48659 13.0334 4.42019 13.0102 4.3561 12.9816C4.29803 12.9589 4.2472 12.9211 4.20904 12.8721C4.16826 12.8258 4.14718 12.7656 4.15023 12.7042C4.15045 12.6602 4.16043 12.6168 4.17949 12.577C4.19855 12.5373 4.22623 12.5022 4.26051 12.4743C4.34391 12.406 4.45046 12.3721 4.55829 12.3794C4.60943 12.378 4.66043 12.3854 4.70901 12.4013C4.74889 12.4105 4.78726 12.4252 4.82297 12.4451C4.85407 12.4633 4.88357 12.4841 4.9112 12.5071C4.93326 12.529 4.95164 12.54 4.95531 12.5509L4.97739 12.5728L5.10973 12.4341L5.08768 12.4086C5.06775 12.3845 5.04419 12.3635 5.01783 12.3465L4.90754 12.2772C4.85917 12.2496 4.80721 12.2287 4.75312 12.2152C4.68973 12.1975 4.62413 12.1889 4.55829 12.1896C4.39746 12.1823 4.23981 12.2357 4.11713 12.3393C4.06358 12.3839 4.02063 12.4398 3.99139 12.5029C3.96215 12.566 3.94734 12.6348 3.94802 12.7042C3.94533 12.7879 3.96433 12.8708 4.00317 12.9451C4.03719 13.0085 4.08805 13.0616 4.15023 13.0984C4.21409 13.136 4.28188 13.1666 4.35242 13.1896L4.56931 13.2626C4.63801 13.2818 4.70551 13.305 4.7715 13.332C4.82866 13.3545 4.87923 13.3909 4.91856 13.4378C4.95695 13.4854 4.97772 13.5447 4.97739 13.6057C4.97848 13.654 4.96882 13.7019 4.94912 13.746C4.92942 13.7902 4.90015 13.8295 4.86341 13.8612C4.77128 13.9321 4.65625 13.9671 4.53992 13.9597C4.4777 13.9604 4.41573 13.9518 4.3561 13.9341C4.30431 13.9224 4.25468 13.9027 4.20904 13.8757C4.17289 13.8573 4.13948 13.8339 4.10977 13.8064C4.0865 13.791 4.06652 13.7711 4.05096 13.748C4.0491 13.7408 4.0491 13.7333 4.05096 13.7261H4.03259ZM5.66117 13.7261L5.53617 13.8648L5.56191 13.894C5.58353 13.921 5.6082 13.9455 5.63544 13.967L5.76042 14.0509C5.81729 14.0815 5.87783 14.1048 5.94057 14.1203C6.01628 14.1394 6.09407 14.1492 6.17218 14.1495C6.3411 14.1586 6.50743 14.1053 6.63905 13.9998C6.6949 13.9507 6.73905 13.8898 6.7683 13.8216C6.79754 13.7535 6.81116 13.6797 6.80817 13.6057C6.81085 13.522 6.79186 13.4391 6.75302 13.3648C6.71452 13.3035 6.66311 13.2512 6.6023 13.2115C6.5386 13.1761 6.47222 13.1455 6.40377 13.1203L6.1832 13.0509C6.11536 13.0328 6.04901 13.0096 5.98469 12.9816C5.92579 12.9586 5.87386 12.9209 5.83395 12.8721C5.79576 12.8246 5.77619 12.7649 5.77882 12.7042C5.77904 12.6602 5.78904 12.6168 5.8081 12.577C5.82716 12.5373 5.85482 12.5022 5.8891 12.4743C5.9719 12.4076 6.07671 12.3737 6.1832 12.3794C6.23559 12.3772 6.28792 12.3846 6.3376 12.4013C6.37842 12.4112 6.41792 12.4259 6.45524 12.4451C6.48521 12.4616 6.51249 12.4825 6.53613 12.5071C6.55529 12.5192 6.57261 12.534 6.58758 12.5509C6.58758 12.5509 6.58758 12.5509 6.58758 12.5728L6.72362 12.4341L6.70154 12.4086C6.68358 12.3827 6.65965 12.3614 6.63172 12.3465C6.5971 12.3202 6.56017 12.297 6.52141 12.2772C6.47404 12.2502 6.4234 12.2294 6.37069 12.2152C6.30482 12.1974 6.23677 12.1888 6.1685 12.1896C6.00898 12.1836 5.85293 12.2369 5.73102 12.3393C5.67823 12.3846 5.63582 12.4406 5.60665 12.5036C5.57748 12.5665 5.56222 12.6349 5.56191 12.7042C5.55855 12.7884 5.57894 12.8718 5.62074 12.9451C5.65476 13.0085 5.7056 13.0616 5.76778 13.0984C5.83035 13.136 5.89692 13.1666 5.96629 13.1896L6.18688 13.2626L6.38907 13.332C6.4449 13.355 6.49415 13.3913 6.53245 13.4378C6.56952 13.4859 6.58896 13.5451 6.58758 13.6057C6.58938 13.6537 6.58044 13.7015 6.56137 13.7457C6.5423 13.7899 6.51357 13.8293 6.4773 13.8612C6.38679 13.9324 6.27272 13.9676 6.15746 13.9597C6.09402 13.9607 6.0308 13.9521 5.96997 13.9341C5.91839 13.9218 5.86889 13.9021 5.82293 13.8757C5.78751 13.8579 5.75522 13.8345 5.72734 13.8064C5.70407 13.7897 5.68307 13.7701 5.66485 13.748L5.64645 13.7261H5.66117ZM7.53239 12.2152H7.32651V14.1239H7.53974V12.2152H7.53239ZM11.6241 12.2152H11.4476V14.1239H11.6535V12.5728L12.3888 13.5765L13.1461 12.5728V14.1239H13.3519V12.2152H13.1718L12.3888 13.2517L11.6057 12.2152H11.6241ZM14.6055 12.2152L13.8225 14.1239H14.0394L14.2526 13.5947H15.146L15.3629 14.1239H15.5798L14.793 12.2152H14.6055ZM14.3335 13.4013L14.7011 12.5035L15.0687 13.4013H14.3335ZM16.2341 12.2152H16.0319V14.1239H17.2083V13.9341H16.2341V12.2152ZM18.2156 12.2152L17.4289 14.1239H17.6495L17.8627 13.5947H18.7561L18.9729 14.1239H19.1862L18.4031 12.2152H18.2156ZM17.9436 13.4013L18.3112 12.5035L18.6789 13.4013H17.9436ZM23.0904 12.2152H22.8919V14.1239H23.0904V12.2152ZM24.3293 12.2152L23.5462 14.1239H23.7631L23.9764 13.5947H24.8697L25.0866 14.1239H25.3035L24.5168 12.2152H24.3293ZM24.0572 13.4013L24.4249 12.5035L24.7925 13.4013H24.0572ZM26.5755 12.2152H26.3733V14.1239H26.5755V13.2517H27.6306V14.1239H27.8328V12.2152H27.6306V13.0619H26.5755V12.2152ZM28.7077 12.2152H28.4945V14.1239H28.7004V12.2152H28.7077ZM30.1157 13.2261H29.2298V13.4013H30.1305V13.2261H30.1157ZM31.737 12.2152H30.3326V12.4086H30.9319V14.1239H31.1341V12.4086H31.7296V12.2152H31.737ZM33.4722 12.2152H32.1708V14.1239H33.4942V13.9341H32.3913V13.2115H33.2737V13.0217H32.395V12.4086H33.4979V12.2152H33.4722ZM34.1707 12.4743C33.9872 12.6599 33.8845 12.9095 33.8845 13.1695C33.8845 13.4296 33.9872 13.6792 34.1707 13.8648C34.2599 13.957 34.3673 14.0299 34.4863 14.0789C34.6052 14.1279 34.7331 14.1519 34.8618 14.1495C34.9553 14.1505 35.0483 14.1369 35.1375 14.1093C35.2133 14.0862 35.2861 14.0543 35.3544 14.0144C35.4116 13.9774 35.4657 13.9359 35.5162 13.8903C35.551 13.8629 35.5819 13.831 35.6081 13.7955C35.6223 13.785 35.6337 13.7712 35.6412 13.7553L35.5088 13.6312L35.4831 13.6677C35.4605 13.6973 35.4346 13.7242 35.4059 13.748L35.2772 13.8466C35.2176 13.8795 35.1548 13.9064 35.0897 13.9268C35.0158 13.9487 34.939 13.9598 34.8618 13.9597C34.7591 13.9623 34.6569 13.9436 34.5619 13.9046C34.4669 13.8656 34.3813 13.8073 34.3104 13.7334C34.1686 13.5794 34.0899 13.3782 34.0899 13.1695C34.0899 12.9609 34.1686 12.7597 34.3104 12.6057C34.3813 12.5318 34.4669 12.4735 34.5619 12.4345C34.6569 12.3955 34.7591 12.3768 34.8618 12.3794C34.9393 12.3787 35.0164 12.3911 35.0897 12.4159C35.1542 12.4317 35.2152 12.4589 35.2699 12.4962C35.3155 12.5238 35.3575 12.5569 35.3949 12.5947L35.4721 12.6714C35.4767 12.6839 35.4842 12.6952 35.4941 12.7042L35.6301 12.5838L35.6008 12.5436C35.5711 12.5076 35.5392 12.4735 35.5052 12.4414C35.4564 12.4003 35.4048 12.3625 35.3508 12.3283C35.2839 12.2849 35.2107 12.2516 35.1339 12.2298C35.0455 12.2037 34.954 12.1902 34.8618 12.1896C34.7331 12.1872 34.6052 12.2112 34.4863 12.2602C34.3673 12.3092 34.2599 12.3821 34.1707 12.4743ZM36.3397 12.2152H36.1375V14.1239H36.3397V13.2517H37.3948V14.1239H37.597V12.2152H37.3948V13.0619H36.3397V12.2152ZM43.0232 12.2152H42.832V14.1239H43.0378V12.5838L44.1995 14.1239H44.3723V12.2152H44.1701V13.7553L43.0084 12.2152H43.0232ZM46.2215 12.2152H44.8282V12.4086H45.4237V14.1239H45.6259V12.4086H46.2215V12.2152ZM47.9567 12.2152H46.659V14.1239H47.9788V13.9341H46.8759V13.2115H47.7508V13.0217H46.8759V12.4086H47.9788V12.2152H47.9567ZM49.2471 12.2152H48.4935V14.1239H48.714V13.3611H49.2544L49.6735 14.1239H49.9014L49.4493 13.321H49.4897C49.5237 13.3068 49.5558 13.2884 49.5853 13.2663C49.6294 13.2397 49.6691 13.2064 49.7029 13.1677C49.7471 13.1232 49.781 13.0696 49.8022 13.0108C49.8228 12.9334 49.8278 12.8528 49.8169 12.7736C49.8184 12.6973 49.8043 12.6215 49.7754 12.5508C49.7465 12.4801 49.7034 12.416 49.6487 12.3624C49.594 12.3088 49.5289 12.2668 49.4573 12.239C49.3857 12.2111 49.3092 12.1981 49.2324 12.2006L49.2471 12.2152ZM48.714 12.4086H49.2655C49.3166 12.4053 49.3679 12.4127 49.416 12.4303C49.4642 12.4479 49.508 12.4753 49.5449 12.5108C49.6094 12.589 49.6446 12.687 49.6446 12.7882C49.6446 12.8893 49.6094 12.9873 49.5449 13.0655C49.508 13.101 49.4642 13.1284 49.416 13.146C49.3679 13.1636 49.3166 13.171 49.2655 13.1677H48.714V12.4086Z" fill="#182339"/>
<path d="M50.0198 16.2812V33.2411C45.4612 33.2411 43.3106 34.2484 40.5681 38.1827C34.403 46.9418 27.3592 50.0367 16.9995 50.0367V33.0732C21.5544 33.0732 23.7087 32.0659 26.4475 28.1316C32.6163 19.3725 39.66 16.2812 50.0198 16.2812Z" fill="#FF2E00"/>
<path d="M0 33.2997H16.9991V16.4238H0V33.2997Z" fill="#FFC800"/>
</svg>
