<svg width="51" height="51" viewBox="0 0 51 51" fill="none" xmlns="http://www.w3.org/2000/svg">
<path d="M50.0203 16.2808V33.2406C45.4617 33.2406 43.3111 34.2479 40.5686 38.1822C34.4035 46.9413 27.3597 50.0362 17 50.0362V33.0727C21.5549 33.0727 23.7092 32.0654 26.448 28.1311C32.6168 19.372 39.6606 16.2808 50.0203 16.2808Z" fill="#FF2E00"/>
<path d="M0 33.2993H16.9991V16.4233H0V33.2993Z" fill="#FFC800"/>
<path d="M0.203692 10.4962V1.82471H1.92596V10.4962H0.203692Z" fill="#182339"/>
<path d="M6.73707 10.4962V3.57106H3.26846V1.82471H11.94V3.57106H8.48342V10.4962H6.73707Z" fill="#182339"/>
<path d="M15.0568 10.4962C14.7356 10.4962 14.4426 10.42 14.1776 10.2674C13.9207 10.1068 13.7119 9.89807 13.5513 9.64113C13.3988 9.37617 13.3225 9.0831 13.3225 8.76193V3.55901C13.3225 3.23785 13.3988 2.94879 13.5513 2.69186C13.7119 2.4269 13.9207 2.21814 14.1776 2.06558C14.4426 1.905 14.7356 1.82471 15.0568 1.82471H21.9699V3.57106H15.4663C15.3378 3.57106 15.2375 3.60719 15.1652 3.67945C15.0929 3.74369 15.0568 3.84405 15.0568 3.98055V8.3404C15.0568 8.46887 15.0929 8.56923 15.1652 8.6415C15.2375 8.71376 15.3378 8.74989 15.4663 8.74989H21.9699V10.4962H15.0568Z" fill="#182339"/>
<path d="M0 14.5108V12.9776H0.164661V14.5108H0Z" fill="#182339"/>
<path d="M1.70863 12.9776H1.87222V14.5108H1.73001L0.789091 13.2737V14.5108H0.62443V12.9776H0.766637L1.70863 14.2157V12.9776Z" fill="#182339"/>
<path d="M2.14701 12.9776H3.27505V13.1315H2.79283V14.5108H2.62923V13.1315H2.14701V12.9776Z" fill="#182339"/>
<path d="M3.71236 14.3579H4.62121V14.5108H3.5477V12.9776H4.59875V13.1315H3.71236V13.6351H4.4234V13.788H3.71236V14.3579Z" fill="#182339"/>
<path d="M4.94839 12.9776H5.56106C5.6965 12.9776 5.80876 13.0214 5.89787 13.1091C5.98768 13.1968 6.03259 13.3062 6.03259 13.4373C6.03259 13.5029 6.02154 13.5628 5.99944 13.617C5.97735 13.6711 5.95097 13.7136 5.92032 13.7442C5.88967 13.7749 5.85866 13.8009 5.8273 13.8223C5.79593 13.8436 5.76956 13.8579 5.74817 13.865L5.71503 13.8757L6.07643 14.5108H5.89038L5.55037 13.8982H5.11305V14.5108H4.94839V12.9776ZM5.56106 13.1315H5.11305V13.7442H5.56106C5.65444 13.7442 5.72893 13.7168 5.78453 13.6619C5.84013 13.6063 5.86793 13.5318 5.86793 13.4384C5.86793 13.3443 5.84013 13.2698 5.78453 13.2149C5.72893 13.1593 5.65444 13.1315 5.56106 13.1315Z" fill="#182339"/>
<path d="M7.51026 12.9776H7.67386V14.5108H7.53165L6.59073 13.2737V14.5108H6.42607V12.9776H6.56827L7.51026 14.2157V12.9776Z" fill="#182339"/>
<path d="M8.96655 13.9302L8.67145 13.2074L8.37527 13.9302H8.96655ZM9.03285 14.0842H8.31005L8.13469 14.5108H7.95934L8.59446 12.9776H8.74736L9.38248 14.5108H9.2082L9.03285 14.0842Z" fill="#182339"/>
<path d="M9.34934 12.9776H10.4774V13.1315H9.99515V14.5108H9.83156V13.1315H9.34934V12.9776Z" fill="#182339"/>
<path d="M10.75 14.5108V12.9776H10.9147V14.5108H10.75Z" fill="#182339"/>
<path d="M11.6204 13.2919C11.4999 13.4138 11.4397 13.5646 11.4397 13.7442C11.4397 13.9238 11.4999 14.0746 11.6204 14.1965C11.7408 14.3184 11.8888 14.3793 12.0641 14.3793C12.2395 14.3793 12.3874 14.3184 12.5078 14.1965C12.6283 14.0746 12.6885 13.9238 12.6885 13.7442C12.6885 13.5646 12.6283 13.4138 12.5078 13.2919C12.3874 13.17 12.2395 13.1091 12.0641 13.1091C11.8888 13.1091 11.7408 13.17 11.6204 13.2919ZM12.6222 13.1861C12.7755 13.3393 12.8521 13.5254 12.8521 13.7442C12.8521 13.963 12.7755 14.1491 12.6222 14.3023C12.469 14.4556 12.2829 14.5322 12.0641 14.5322C11.8453 14.5322 11.6592 14.4556 11.506 14.3023C11.3527 14.1491 11.2761 13.963 11.2761 13.7442C11.2761 13.5254 11.3527 13.3393 11.506 13.1861C11.6592 13.0328 11.8453 12.9562 12.0641 12.9562C12.2829 12.9562 12.469 13.0328 12.6222 13.1861Z" fill="#182339"/>
<path d="M14.2977 12.9776H14.4613V14.5108H14.3191L13.3782 13.2737V14.5108H13.2135V12.9776H13.3557L14.2977 14.2157V12.9776Z" fill="#182339"/>
<path d="M15.754 13.9302L15.4589 13.2074L15.1627 13.9302H15.754ZM15.8203 14.0842H15.0975L14.9222 14.5108H14.7468L15.3819 12.9776H15.5348L16.1699 14.5108H15.9957L15.8203 14.0842Z" fill="#182339"/>
<path d="M17.4081 14.5108H16.4554V12.9776H16.6201V14.3579H17.4081V14.5108Z" fill="#182339"/>
<path d="M18.2378 13.788V13.9302H17.5043V13.788H18.2378Z" fill="#182339"/>
<path d="M18.3351 12.9776H19.4632V13.1315H18.981V14.5108H18.8174V13.1315H18.3351V12.9776Z" fill="#182339"/>
<path d="M19.9005 14.3579H20.8093V14.5108H19.7358V12.9776H20.7869V13.1315H19.9005V13.6351H20.6115V13.788H19.9005V14.3579Z" fill="#182339"/>
<path d="M21.268 14.3023C21.1148 14.1491 21.0381 13.963 21.0381 13.7442C21.0381 13.5254 21.1148 13.3393 21.268 13.1861C21.4213 13.0328 21.6073 12.9562 21.8262 12.9562C21.9039 12.9562 21.9784 12.9672 22.0496 12.9893C22.1209 13.0107 22.1797 13.0367 22.2261 13.0674C22.2731 13.098 22.3141 13.129 22.349 13.1604C22.3847 13.1918 22.4103 13.2185 22.426 13.2406L22.4506 13.2737L22.3405 13.3721C22.3362 13.365 22.3298 13.3557 22.3212 13.3443C22.3127 13.3322 22.2927 13.3112 22.2613 13.2812C22.23 13.2513 22.1958 13.2249 22.1587 13.2021C22.1223 13.1786 22.0742 13.1572 22.0144 13.1379C21.9545 13.1187 21.8917 13.1091 21.8262 13.1091C21.6508 13.1091 21.5029 13.17 21.3824 13.2919C21.262 13.4138 21.2017 13.5646 21.2017 13.7442C21.2017 13.9238 21.262 14.0746 21.3824 14.1965C21.5029 14.3184 21.6508 14.3793 21.8262 14.3793C21.8917 14.3793 21.9545 14.3704 22.0144 14.3526C22.0742 14.3341 22.1238 14.312 22.163 14.2863C22.2029 14.2606 22.2378 14.2353 22.2678 14.2104C22.2977 14.1847 22.3191 14.1623 22.3319 14.143L22.3522 14.1163L22.4613 14.2157C22.4556 14.2243 22.4467 14.2357 22.4346 14.2499C22.4232 14.2635 22.3971 14.2884 22.3565 14.3248C22.3166 14.3611 22.2742 14.3936 22.2293 14.4221C22.1844 14.4506 22.1252 14.4763 22.0518 14.4991C21.9791 14.5212 21.9039 14.5322 21.8262 14.5322C21.6073 14.5322 21.4213 14.4556 21.268 14.3023Z" fill="#182339"/>
<path d="M22.7789 14.5108V12.9776H22.9435V13.6565H23.7968V12.9776H23.9614V14.5108H23.7968V13.8105H22.9435V14.5108H22.7789Z" fill="#182339"/>
<path d="M25.5054 12.9776H25.669V14.5108H25.5268L24.5858 13.2737V14.5108H24.4212V12.9776H24.5634L25.5054 14.2157V12.9776Z" fill="#182339"/>
<path d="M26.3757 13.2919C26.2553 13.4138 26.195 13.5646 26.195 13.7442C26.195 13.9238 26.2553 14.0746 26.3757 14.1965C26.4962 14.3184 26.6441 14.3793 26.8195 14.3793C26.9948 14.3793 27.1427 14.3184 27.2632 14.1965C27.3837 14.0746 27.4439 13.9238 27.4439 13.7442C27.4439 13.5646 27.3837 13.4138 27.2632 13.2919C27.1427 13.17 26.9948 13.1091 26.8195 13.1091C26.6441 13.1091 26.4962 13.17 26.3757 13.2919ZM27.3776 13.1861C27.5309 13.3393 27.6075 13.5254 27.6075 13.7442C27.6075 13.963 27.5309 14.1491 27.3776 14.3023C27.2243 14.4556 27.0383 14.5322 26.8195 14.5322C26.6006 14.5322 26.4146 14.4556 26.2613 14.3023C26.1081 14.1491 26.0314 13.963 26.0314 13.7442C26.0314 13.5254 26.1081 13.3393 26.2613 13.1861C26.4146 13.0328 26.6006 12.9562 26.8195 12.9562C27.0383 12.9562 27.2243 13.0328 27.3776 13.1861Z" fill="#182339"/>
<path d="M28.9216 14.5108H27.9689V12.9776H28.1336V14.3579H28.9216V14.5108Z" fill="#182339"/>
<path d="M29.3525 13.2919C29.232 13.4138 29.1718 13.5646 29.1718 13.7442C29.1718 13.9238 29.232 14.0746 29.3525 14.1965C29.4729 14.3184 29.6208 14.3793 29.7962 14.3793C29.9716 14.3793 30.1195 14.3184 30.2399 14.1965C30.3604 14.0746 30.4206 13.9238 30.4206 13.7442C30.4206 13.5646 30.3604 13.4138 30.2399 13.2919C30.1195 13.17 29.9716 13.1091 29.7962 13.1091C29.6208 13.1091 29.4729 13.17 29.3525 13.2919ZM30.3543 13.1861C30.5076 13.3393 30.5842 13.5254 30.5842 13.7442C30.5842 13.963 30.5076 14.1491 30.3543 14.3023C30.2011 14.4556 30.015 14.5322 29.7962 14.5322C29.5774 14.5322 29.3913 14.4556 29.2381 14.3023C29.0848 14.1491 29.0082 13.963 29.0082 13.7442C29.0082 13.5254 29.0848 13.3393 29.2381 13.1861C29.3913 13.0328 29.5774 12.9562 29.7962 12.9562C30.015 12.9562 30.2011 13.0328 30.3543 13.1861Z" fill="#182339"/>
<path d="M31.0771 14.3023C30.9239 14.1491 30.8473 13.963 30.8473 13.7442C30.8473 13.5254 30.9239 13.3393 31.0771 13.1861C31.2304 13.0328 31.4164 12.9562 31.6353 12.9562C31.713 12.9562 31.7875 12.9672 31.8587 12.9893C31.93 13.0107 31.9888 13.0367 32.0352 13.0674C32.0822 13.098 32.1232 13.129 32.1581 13.1604C32.1938 13.1918 32.2194 13.2185 32.2351 13.2406L32.2597 13.2737L32.1496 13.3721C32.1453 13.365 32.1389 13.3557 32.1303 13.3443C32.1218 13.3322 32.1018 13.3112 32.0705 13.2812C32.0391 13.2513 32.0049 13.2249 31.9678 13.2021C31.9315 13.1786 31.8833 13.1572 31.8235 13.1379C31.7636 13.1187 31.7009 13.1091 31.6353 13.1091C31.4599 13.1091 31.312 13.17 31.1915 13.2919C31.0711 13.4138 31.0108 13.5646 31.0108 13.7442C31.0108 13.9238 31.0711 14.0746 31.1915 14.1965C31.312 14.3184 31.4599 14.3793 31.6353 14.3793C31.6966 14.3793 31.755 14.3722 31.8106 14.3579C31.8662 14.343 31.9118 14.3255 31.9475 14.3055C31.9831 14.2849 32.0145 14.2649 32.0416 14.2457C32.0687 14.2257 32.0879 14.2082 32.0993 14.1933L32.1175 14.1719V13.8757H31.7668V13.7228H32.2811V14.2157C32.2754 14.2243 32.2661 14.2357 32.2533 14.2499C32.2412 14.2635 32.2148 14.2884 32.1742 14.3248C32.1335 14.3611 32.0897 14.3936 32.0427 14.4221C31.9963 14.4506 31.9361 14.4763 31.862 14.4991C31.7885 14.5212 31.713 14.5322 31.6353 14.5322C31.4164 14.5322 31.2304 14.4556 31.0771 14.3023Z" fill="#182339"/>
<path d="M33.1012 13.7987H33.1119L33.5717 12.9776H33.7588L33.1889 13.9741V14.5108H33.0242V13.9741L32.4554 12.9776H32.6414L33.1012 13.7987Z" fill="#182339"/>
<path d="M34.5457 13.788V13.9302H33.8122V13.788H34.5457Z" fill="#182339"/>
<path d="M35.0055 14.3023C34.8522 14.1491 34.7756 13.963 34.7756 13.7442C34.7756 13.5254 34.8522 13.3393 35.0055 13.1861C35.1587 13.0328 35.3448 12.9562 35.5636 12.9562C35.6413 12.9562 35.7158 12.9672 35.7871 12.9893C35.8584 13.0107 35.9172 13.0367 35.9635 13.0674C36.0106 13.098 36.0515 13.129 36.0865 13.1604C36.1221 13.1918 36.1478 13.2185 36.1635 13.2406L36.1881 13.2737L36.0779 13.3721C36.0736 13.365 36.0672 13.3557 36.0587 13.3443C36.0501 13.3322 36.0302 13.3112 35.9988 13.2812C35.9674 13.2513 35.9332 13.2249 35.8962 13.2021C35.8598 13.1786 35.8117 13.1572 35.7518 13.1379C35.6919 13.1187 35.6292 13.1091 35.5636 13.1091C35.3883 13.1091 35.2404 13.17 35.1199 13.2919C34.9994 13.4138 34.9392 13.5646 34.9392 13.7442C34.9392 13.9238 34.9994 14.0746 35.1199 14.1965C35.2404 14.3184 35.3883 14.3793 35.5636 14.3793C35.6292 14.3793 35.6919 14.3704 35.7518 14.3526C35.8117 14.3341 35.8612 14.312 35.9004 14.2863C35.9403 14.2606 35.9753 14.2353 36.0052 14.2104C36.0352 14.1847 36.0565 14.1623 36.0694 14.143L36.0897 14.1163L36.1987 14.2157C36.193 14.2243 36.1841 14.2357 36.172 14.2499C36.1606 14.2635 36.1346 14.2884 36.094 14.3248C36.054 14.3611 36.0116 14.3936 35.9667 14.4221C35.9218 14.4506 35.8627 14.4763 35.7892 14.4991C35.7165 14.5212 35.6413 14.5322 35.5636 14.5322C35.3448 14.5322 35.1587 14.4556 35.0055 14.3023Z" fill="#182339"/>
<path d="M36.681 14.3579H37.5898V14.5108H36.5163V12.9776H37.5674V13.1315H36.681V13.6351H37.392V13.788H36.681V14.3579Z" fill="#182339"/>
<path d="M39.0012 12.9776H39.1648V14.5108H39.0226L38.0817 13.2737V14.5108H37.917V12.9776H38.0592L39.0012 14.2157V12.9776Z" fill="#182339"/>
<path d="M39.4396 12.9776H40.5676V13.1315H40.0854V14.5108H39.9218V13.1315H39.4396V12.9776Z" fill="#182339"/>
<path d="M41.0049 14.3579H41.9138V14.5108H40.8403V12.9776H41.8913V13.1315H41.0049V13.6351H41.716V13.788H41.0049V14.3579Z" fill="#182339"/>
<path d="M42.241 12.9776H42.8536C42.9891 12.9776 43.1013 13.0214 43.1904 13.1091C43.2802 13.1968 43.3252 13.3062 43.3252 13.4373C43.3252 13.5029 43.3141 13.5628 43.292 13.617C43.2699 13.6711 43.2435 13.7136 43.2129 13.7442C43.1822 13.7749 43.1512 13.8009 43.1199 13.8223C43.0885 13.8436 43.0621 13.8579 43.0407 13.865L43.0076 13.8757L43.369 14.5108H43.1829L42.8429 13.8982H42.4056V14.5108H42.241V12.9776ZM42.8536 13.1315H42.4056V13.7442H42.8536C42.947 13.7442 43.0215 13.7168 43.0771 13.6619C43.1327 13.6063 43.1605 13.5318 43.1605 13.4384C43.1605 13.3443 43.1327 13.2698 43.0771 13.2149C43.0215 13.1593 42.947 13.1315 42.8536 13.1315Z" fill="#182339"/>
</svg>
